<?xml version="1.0" standalone="no"?>
<!DOCTYPE svg PUBLIC "-//W3C//DTD SVG 20010904//EN"
 "http://www.w3.org/TR/2001/REC-SVG-20010904/DTD/svg10.dtd">
<svg version="1.0" xmlns="http://www.w3.org/2000/svg"
 width="350.026360pt" height="351.098173pt" viewBox="0 0 350.026360 351.098173"
 preserveAspectRatio="xMidYMid meet">
<metadata>
Created by potrace 1.12, written by Peter Selinger 2001-2015
</metadata>
<g transform="translate(-81.973640,430.678093) scale(0.100000,-0.100000)"
fill="#000000" stroke="none">
<path d="M2465 4304 c-135 -13 -225 -28 -337 -56 l-128 -31 -21 -56 c-36 -96
-87 -311 -100 -421 -46 -396 94 -723 393 -917 60 -39 149 -83 167 -83 3 0 5
63 3 140 -5 171 8 272 54 409 53 160 131 289 257 427 112 123 361 281 565 359
l72 28 -27 17 c-52 31 -228 98 -329 124 -170 44 -440 72 -569 60z"/>
<path d="M1525 3963 c-117 -85 -303 -274 -387 -393 -127 -179 -239 -433 -283
-642 l-15 -71 41 -55 c165 -218 414 -395 639 -454 69 -18 112 -22 225 -22 205
0 349 40 538 151 l78 45 -108 53 c-227 110 -416 292 -522 503 -54 107 -97 238
-117 357 -19 119 -22 380 -4 504 6 45 10 85 8 87 -2 1 -44 -27 -93 -63z"/>
<path d="M3586 3864 c-109 -20 -306 -88 -399 -137 -234 -124 -398 -325 -466
-570 -34 -122 -51 -313 -33 -374 7 -21 10 -20 89 31 214 140 476 203 737 178
241 -23 459 -108 712 -277 l94 -63 0 38 c0 66 -41 282 -72 380 -90 285 -216
495 -427 713 -106 109 -96 106 -235 81z"/>
<path d="M3295 2760 c-156 -21 -282 -65 -417 -147 l-78 -47 75 -32 c269 -119
475 -321 578 -568 96 -228 127 -519 86 -810 -5 -38 -7 -71 -5 -74 11 -10 169
120 276 228 158 158 267 309 355 495 41 87 101 271 121 369 l17 85 -52 60
c-223 258 -486 409 -766 441 -99 11 -104 11 -190 0z"/>
<path d="M824 2375 c26 -290 143 -605 314 -845 37 -52 117 -146 178 -208 l111
-115 49 7 c243 35 489 128 643 241 149 110 266 265 322 428 37 108 60 267 52
368 l-6 77 -49 -38 c-67 -51 -206 -122 -299 -154 -164 -55 -395 -72 -575 -41
-221 39 -460 152 -727 345 -20 14 -20 14 -13 -65z"/>
<path d="M2728 2226 c6 -142 -9 -250 -54 -384 -108 -327 -385 -618 -778 -818
-53 -27 -96 -51 -96 -54 0 -8 76 -39 198 -81 348 -119 746 -124 1106 -15 l83
26 36 117 c56 181 80 343 73 483 -15 309 -147 558 -389 737 -52 37 -166 103
-180 103 -3 0 -2 -51 1 -114z"/>
</g>
</svg>
